<?xml version="1.0" standalone="no"?>
<!DOCTYPE svg PUBLIC "-//W3C//DTD SVG 20010904//EN"
 "http://www.w3.org/TR/2001/REC-SVG-20010904/DTD/svg10.dtd">
<svg version="1.0" xmlns="http://www.w3.org/2000/svg"
 width="700.000000pt" height="700.000000pt" viewBox="0 0 700.000000 700.000000"
 preserveAspectRatio="xMidYMid meet">
<metadata>
Created by potrace 1.14, written by Peter Selinger 2001-2017
</metadata>
<g transform="translate(0.000000,700.000000) scale(0.100000,-0.100000)"
fill="#000000" stroke="none">
<path d="M3350 5103 c-292 -39 -528 -122 -738 -263 -206 -138 -343 -282 -500
-525 -11 -18 -89 -178 -112 -230 -7 -16 -19 -51 -25 -75 -1 -3 -5 -14 -9 -25
-20 -52 -52 -199 -63 -285 -10 -79 -10 -314 -1 -390 15 -122 83 -384 108 -415
5 -5 9 -14 9 -20 1 -26 109 -220 169 -304 61 -86 210 -249 288 -313 221 -183
513 -310 812 -353 94 -13 366 -14 422 -1 14 3 45 9 70 12 64 8 211 50 310 89
320 123 595 358 798 680 85 136 170 373 203 570 17 106 19 345 3 459 -64 456
-310 854 -687 1114 -134 93 -330 186 -457 217 -8 2 -42 11 -75 19 -135 36
-400 55 -525 39z"/>
</g>
</svg>
